<mxfile host="app.diagrams.net" agent="Mozilla/5.0 (Windows NT 10.0; Win64; x64) AppleWebKit/537.36 (KHTML, like Gecko) Chrome/136.0.0.0 Safari/537.36" version="27.0.9">
  <diagram name="Trang-1" id="tfQ3yyUe_glzjIe04iGm">
    <mxGraphModel grid="1" page="1" gridSize="10" guides="1" tooltips="1" connect="1" arrows="1" fold="1" pageScale="1" pageWidth="827" pageHeight="1169" math="0" shadow="0">
      <root>
        <mxCell id="0" />
        <mxCell id="1" parent="0" />
        <mxCell id="9plIo7DlZ2WDh78lmh18-1" value="" style="shape=folder;fontStyle=1;spacingTop=10;tabWidth=50;tabHeight=30;tabPosition=left;html=1;whiteSpace=wrap;" vertex="1" parent="1">
          <mxGeometry x="70" y="110" width="660" height="510" as="geometry" />
        </mxCell>
        <mxCell id="9plIo7DlZ2WDh78lmh18-2" value="Control" style="text;html=1;align=center;verticalAlign=middle;whiteSpace=wrap;rounded=0;" vertex="1" parent="1">
          <mxGeometry x="60" y="110" width="70" height="30" as="geometry" />
        </mxCell>
        <mxCell id="9plIo7DlZ2WDh78lmh18-5" value="C_EventManagement" style="swimlane;fontStyle=1;align=center;verticalAlign=top;childLayout=stackLayout;horizontal=1;startSize=26;horizontalStack=0;resizeParent=1;resizeParentMax=0;resizeLast=0;collapsible=1;marginBottom=0;whiteSpace=wrap;html=1;" vertex="1" parent="1">
          <mxGeometry x="290" y="173" width="160" height="170" as="geometry">
            <mxRectangle x="300" y="180" width="140" height="30" as="alternateBounds" />
          </mxGeometry>
        </mxCell>
        <mxCell id="JfeFCUovsia1cY7eLE5s-2" value="- event : EventModel&lt;div&gt;- eventView : EventView&lt;/div&gt;" style="text;html=1;align=left;verticalAlign=middle;resizable=0;points=[];autosize=1;strokeColor=none;fillColor=none;" vertex="1" parent="9plIo7DlZ2WDh78lmh18-5">
          <mxGeometry y="26" width="160" height="40" as="geometry" />
        </mxCell>
        <mxCell id="9plIo7DlZ2WDh78lmh18-7" value="" style="line;strokeWidth=1;fillColor=none;align=left;verticalAlign=middle;spacingTop=-1;spacingLeft=3;spacingRight=3;rotatable=0;labelPosition=right;points=[];portConstraint=eastwest;strokeColor=inherit;" vertex="1" parent="9plIo7DlZ2WDh78lmh18-5">
          <mxGeometry y="66" width="160" height="14" as="geometry" />
        </mxCell>
        <mxCell id="9plIo7DlZ2WDh78lmh18-8" value="+ addEvent()&lt;div&gt;+ deleteEvent()&lt;/div&gt;&lt;div&gt;+ updateEvent()&lt;/div&gt;&lt;div&gt;+ getEvent()&lt;/div&gt;&lt;div&gt;+ getLog()&lt;br&gt;&lt;div&gt;&lt;br&gt;&lt;/div&gt;&lt;/div&gt;" style="text;strokeColor=none;fillColor=none;align=left;verticalAlign=top;spacingLeft=4;spacingRight=4;overflow=hidden;rotatable=0;points=[[0,0.5],[1,0.5]];portConstraint=eastwest;whiteSpace=wrap;html=1;" vertex="1" parent="9plIo7DlZ2WDh78lmh18-5">
          <mxGeometry y="80" width="160" height="90" as="geometry" />
        </mxCell>
        <mxCell id="9plIo7DlZ2WDh78lmh18-13" value="C_AccountManagement" style="swimlane;fontStyle=1;align=center;verticalAlign=top;childLayout=stackLayout;horizontal=1;startSize=26;horizontalStack=0;resizeParent=1;resizeParentMax=0;resizeLast=0;collapsible=1;marginBottom=0;whiteSpace=wrap;html=1;" vertex="1" parent="1">
          <mxGeometry x="100" y="170" width="160" height="196" as="geometry">
            <mxRectangle x="100" y="170" width="140" height="30" as="alternateBounds" />
          </mxGeometry>
        </mxCell>
        <mxCell id="JfeFCUovsia1cY7eLE5s-1" value="- user : UserModel&lt;div&gt;- userView : UserView&lt;/div&gt;" style="text;html=1;align=left;verticalAlign=middle;whiteSpace=wrap;rounded=0;" vertex="1" parent="9plIo7DlZ2WDh78lmh18-13">
          <mxGeometry y="26" width="160" height="30" as="geometry" />
        </mxCell>
        <mxCell id="9plIo7DlZ2WDh78lmh18-14" value="" style="line;strokeWidth=1;fillColor=none;align=left;verticalAlign=middle;spacingTop=-1;spacingLeft=3;spacingRight=3;rotatable=0;labelPosition=right;points=[];portConstraint=eastwest;strokeColor=inherit;" vertex="1" parent="9plIo7DlZ2WDh78lmh18-13">
          <mxGeometry y="56" width="160" height="4" as="geometry" />
        </mxCell>
        <mxCell id="9plIo7DlZ2WDh78lmh18-15" value="+ logIn()&lt;div&gt;+ logOut()&lt;/div&gt;&lt;div&gt;+ register()&lt;/div&gt;&lt;div&gt;+ updateUserInfor()&lt;/div&gt;&lt;div&gt;+ changePassword()&amp;nbsp;&lt;/div&gt;&lt;div&gt;+ getUserInfor()&lt;/div&gt;&lt;div&gt;&lt;div&gt;&lt;br&gt;&lt;/div&gt;&lt;/div&gt;" style="text;strokeColor=none;fillColor=none;align=left;verticalAlign=top;spacingLeft=4;spacingRight=4;overflow=hidden;rotatable=0;points=[[0,0.5],[1,0.5]];portConstraint=eastwest;whiteSpace=wrap;html=1;" vertex="1" parent="9plIo7DlZ2WDh78lmh18-13">
          <mxGeometry y="60" width="160" height="136" as="geometry" />
        </mxCell>
        <mxCell id="QbUDWUhYNCXolD9mImUd-2" value="C_CheckEvent" style="swimlane;fontStyle=1;align=center;verticalAlign=top;childLayout=stackLayout;horizontal=1;startSize=26;horizontalStack=0;resizeParent=1;resizeParentMax=0;resizeLast=0;collapsible=1;marginBottom=0;whiteSpace=wrap;html=1;" vertex="1" parent="1">
          <mxGeometry x="495" y="178" width="160" height="150" as="geometry">
            <mxRectangle x="300" y="180" width="140" height="30" as="alternateBounds" />
          </mxGeometry>
        </mxCell>
        <mxCell id="JfeFCUovsia1cY7eLE5s-3" value="- event : EventModel&lt;div&gt;- eventView : EventView&lt;/div&gt;" style="text;html=1;align=left;verticalAlign=middle;resizable=0;points=[];autosize=1;strokeColor=none;fillColor=none;" vertex="1" parent="QbUDWUhYNCXolD9mImUd-2">
          <mxGeometry y="26" width="160" height="40" as="geometry" />
        </mxCell>
        <mxCell id="QbUDWUhYNCXolD9mImUd-3" value="" style="line;strokeWidth=1;fillColor=none;align=left;verticalAlign=middle;spacingTop=-1;spacingLeft=3;spacingRight=3;rotatable=0;labelPosition=right;points=[];portConstraint=eastwest;strokeColor=inherit;" vertex="1" parent="QbUDWUhYNCXolD9mImUd-2">
          <mxGeometry y="66" width="160" height="14" as="geometry" />
        </mxCell>
        <mxCell id="QbUDWUhYNCXolD9mImUd-4" value="+ loadEventData()&lt;div&gt;+ findEvent()&lt;/div&gt;&lt;div&gt;+ getEventInfor()&lt;/div&gt;" style="text;strokeColor=none;fillColor=none;align=left;verticalAlign=top;spacingLeft=4;spacingRight=4;overflow=hidden;rotatable=0;points=[[0,0.5],[1,0.5]];portConstraint=eastwest;whiteSpace=wrap;html=1;" vertex="1" parent="QbUDWUhYNCXolD9mImUd-2">
          <mxGeometry y="80" width="160" height="70" as="geometry" />
        </mxCell>
        <mxCell id="QbUDWUhYNCXolD9mImUd-6" value="C_ShareEvent" style="swimlane;fontStyle=1;align=center;verticalAlign=top;childLayout=stackLayout;horizontal=1;startSize=26;horizontalStack=0;resizeParent=1;resizeParentMax=0;resizeLast=0;collapsible=1;marginBottom=0;whiteSpace=wrap;html=1;" vertex="1" parent="1">
          <mxGeometry x="120" y="399" width="320" height="180" as="geometry">
            <mxRectangle x="300" y="180" width="140" height="30" as="alternateBounds" />
          </mxGeometry>
        </mxCell>
        <mxCell id="JfeFCUovsia1cY7eLE5s-6" value="&lt;div&gt;- userView : UserView&lt;/div&gt;&lt;div&gt;- eventView : EventView&lt;/div&gt;&lt;div&gt;- userJoinEventModel : ArrayList&amp;lt;UserJoinEventModel&amp;gt;&lt;/div&gt;&lt;div&gt;- userJoinEventView : ArrayList&amp;lt;UserJoinEventView&amp;gt;&amp;nbsp;&lt;/div&gt;" style="text;html=1;align=left;verticalAlign=middle;resizable=0;points=[];autosize=1;strokeColor=none;fillColor=none;" vertex="1" parent="QbUDWUhYNCXolD9mImUd-6">
          <mxGeometry y="26" width="320" height="70" as="geometry" />
        </mxCell>
        <mxCell id="QbUDWUhYNCXolD9mImUd-7" value="" style="line;strokeWidth=1;fillColor=none;align=left;verticalAlign=middle;spacingTop=-1;spacingLeft=3;spacingRight=3;rotatable=0;labelPosition=right;points=[];portConstraint=eastwest;strokeColor=inherit;" vertex="1" parent="QbUDWUhYNCXolD9mImUd-6">
          <mxGeometry y="96" width="320" height="14" as="geometry" />
        </mxCell>
        <mxCell id="QbUDWUhYNCXolD9mImUd-8" value="+ generateLink()&lt;div&gt;+ addEvent()&lt;/div&gt;&lt;div&gt;+ getMember()&lt;/div&gt;&lt;div&gt;&lt;br&gt;&lt;/div&gt;" style="text;strokeColor=none;fillColor=none;align=left;verticalAlign=top;spacingLeft=4;spacingRight=4;overflow=hidden;rotatable=0;points=[[0,0.5],[1,0.5]];portConstraint=eastwest;whiteSpace=wrap;html=1;" vertex="1" parent="QbUDWUhYNCXolD9mImUd-6">
          <mxGeometry y="110" width="320" height="70" as="geometry" />
        </mxCell>
        <mxCell id="qrPqcEimh8nEXSVYMOhw-2" value="C_Reminder" style="swimlane;fontStyle=1;align=center;verticalAlign=top;childLayout=stackLayout;horizontal=1;startSize=26;horizontalStack=0;resizeParent=1;resizeParentMax=0;resizeLast=0;collapsible=1;marginBottom=0;whiteSpace=wrap;html=1;" vertex="1" parent="1">
          <mxGeometry x="495" y="400" width="190" height="150" as="geometry">
            <mxRectangle x="300" y="180" width="140" height="30" as="alternateBounds" />
          </mxGeometry>
        </mxCell>
        <mxCell id="JfeFCUovsia1cY7eLE5s-4" value="- remider : ReminderModel&lt;div&gt;- reminderView : ReminderView&lt;/div&gt;" style="text;html=1;align=left;verticalAlign=middle;resizable=0;points=[];autosize=1;strokeColor=none;fillColor=none;" vertex="1" parent="qrPqcEimh8nEXSVYMOhw-2">
          <mxGeometry y="26" width="190" height="40" as="geometry" />
        </mxCell>
        <mxCell id="qrPqcEimh8nEXSVYMOhw-3" value="" style="line;strokeWidth=1;fillColor=none;align=left;verticalAlign=middle;spacingTop=-1;spacingLeft=3;spacingRight=3;rotatable=0;labelPosition=right;points=[];portConstraint=eastwest;strokeColor=inherit;" vertex="1" parent="qrPqcEimh8nEXSVYMOhw-2">
          <mxGeometry y="66" width="190" height="14" as="geometry" />
        </mxCell>
        <mxCell id="qrPqcEimh8nEXSVYMOhw-4" value="+ saveReminder()&lt;div&gt;+ updateReminder()&lt;/div&gt;&lt;div&gt;+ deleteReminder()&lt;/div&gt;" style="text;strokeColor=none;fillColor=none;align=left;verticalAlign=top;spacingLeft=4;spacingRight=4;overflow=hidden;rotatable=0;points=[[0,0.5],[1,0.5]];portConstraint=eastwest;whiteSpace=wrap;html=1;" vertex="1" parent="qrPqcEimh8nEXSVYMOhw-2">
          <mxGeometry y="80" width="190" height="70" as="geometry" />
        </mxCell>
      </root>
    </mxGraphModel>
  </diagram>
</mxfile>
